ffmpeg started on 2025-06-04 at 20:37:48
Report written to "D:\Convert\FFMetrics\reports\psnr_report-6.txt"
Log level: 32
Command line:
ffmpeg -hide_banner -nostdin -i "G:\\\xc0\xed\xe8\xec\xe5\\\xce\xed\xe3\xee\xe8\xed\xe3\xe8\\!_36_\xce\xf1\xe5\xed\xfc_2024\\DreamCast\\\xc4\xe5\xf2\xf1\xea\xe0\xff \xc4\xe5\xeb\xe8\xea\xee\\[DC] Delicos Nursery - 04_Telegram_HEVC.mkv" -i "G:\\\xc0\xed\xe8\xec\xe5\\\xce\xed\xe3\xee\xe8\xed\xe3\xe8\\!_36_\xce\xf1\xe5\xed\xfc_2024\\DreamCast\\\xc4\xe5\xf2\xf1\xea\xe0\xff \xc4\xe5\xeb\xe8\xea\xee\\[DC] Delicos Nursery - 04_Telegram.mp4" -lavfi "[0:v]settb=AVTB,setpts=PTS-STARTPTS,format=pix_fmts=yuv420p10,fps=24000/1001,scale=1920:1080:flags=bicubic[main];[1:v]settb=AVTB,setpts=PTS-STARTPTS,format=pix_fmts=yuv420p,fps=24000/1001,scale=1920:1080:flags=bicubic[ref];[main][ref]psnr=eof_action=endall:stats_file='D\\:/Convert/FFMetrics/logs/psnr_logfile-6.txt'" -f null -
Input #0, matroska,webm, from 'G:\Аниме\Онгоинги\!_36_Осень_2024\DreamCast\Детская Делико\[DC] Delicos Nursery - 04_Telegram_HEVC.mkv':
  Metadata:
    COMPATIBLE_BRANDS: isomiso2avc1mp41
    MAJOR_BRAND     : isom
    MINOR_VERSION   : 512
    ENCODER         : Lavf61.7.100
  Duration: 00:23:46.65, start: -0.021000, bitrate: 1402 kb/s
  Stream #0:0: Video: hevc (Main 10), yuv420p10le(tv, bt709, progressive), 1920x1080 [SAR 1:1 DAR 16:9], 23.98 fps, 23.98 tbr, 1k tbn (default)
      Metadata:
        HANDLER_NAME    : VideoHandler
        VENDOR_ID       : [0][0][0][0]
        ENCODER         : Lavc61.19.100 libx265
        BPS             : 1205478
        DURATION        : 00:23:46.549708333
        NUMBER_OF_FRAMES: 34203
        NUMBER_OF_BYTES : 214959280
        _STATISTICS_WRITING_APP: mkvpropedit v66.0.0 ('Josie') 64-bit
        _STATISTICS_WRITING_DATE_UTC: 2025-05-30 12:14:48
        _STATISTICS_TAGS: BPS DURATION NUMBER_OF_FRAMES NUMBER_OF_BYTES
  Stream #0:1: Audio: aac (LC), 48000 Hz, stereo, fltp (default)
      Metadata:
        HANDLER_NAME    : SoundHandler
        VENDOR_ID       : [0][0][0][0]
        ENCODER         : Lavc61.19.100 aac
        BPS             : 192757
        DURATION        : 00:23:46.645000000
        NUMBER_OF_FRAMES: 66875
        NUMBER_OF_BYTES : 34374638
        _STATISTICS_WRITING_APP: mkvpropedit v66.0.0 ('Josie') 64-bit
        _STATISTICS_WRITING_DATE_UTC: 2025-05-30 12:14:48
        _STATISTICS_TAGS: BPS DURATION NUMBER_OF_FRAMES NUMBER_OF_BYTES
Input #1, mov,mp4,m4a,3gp,3g2,mj2, from 'G:\Аниме\Онгоинги\!_36_Осень_2024\DreamCast\Детская Делико\[DC] Delicos Nursery - 04_Telegram.mp4':
  Metadata:
    major_brand     : isom
    minor_version   : 512
    compatible_brands: isomiso2avc1mp41
    encoder         : Lavf60.16.100
  Duration: 00:23:46.62, start: 0.000000, bitrate: 3872 kb/s
  Stream #1:0[0x1](und): Video: h264 (High) (avc1 / 0x31637661), yuv420p(tv, bt709, progressive), 1920x1080 [SAR 1:1 DAR 16:9], 3724 kb/s, 23.98 fps, 23.98 tbr, 24k tbn (default)
      Metadata:
        handler_name    : VideoHandler
        vendor_id       : [0][0][0][0]
        encoder         : Lavc60.31.102 h264_qsv
  Stream #1:1[0x2](und): Audio: aac (HE-AACv2) (mp4a / 0x6134706D), 48000 Hz, stereo, fltp, 144 kb/s (default)
      Metadata:
        handler_name    : SoundHandler
        vendor_id       : [0][0][0][0]
Stream mapping:
  Stream #0:0 (hevc) -> settb:default
  Stream #1:0 (h264) -> settb:default
  psnr:default -> Stream #0:0 (wrapped_avframe)
  Stream #0:1 -> #0:1 (aac (native) -> pcm_s16le (native))
Output #0, null, to 'pipe:':
  Metadata:
    COMPATIBLE_BRANDS: isomiso2avc1mp41
    MAJOR_BRAND     : isom
    MINOR_VERSION   : 512
    encoder         : Lavf61.7.100
  Stream #0:0: Video: wrapped_avframe, yuv420p10le(tv, bt709, progressive), 1920x1080 [SAR 1:1 DAR 16:9], q=2-31, 200 kb/s, 23.98 fps, 23.98 tbn
      Metadata:
        encoder         : Lavc61.19.100 wrapped_avframe
  Stream #0:1: Audio: pcm_s16le, 48000 Hz, stereo, s16, 1536 kb/s (default)
      Metadata:
        HANDLER_NAME    : SoundHandler
        VENDOR_ID       : [0][0][0][0]
        _STATISTICS_TAGS: BPS DURATION NUMBER_OF_FRAMES NUMBER_OF_BYTES
        BPS             : 192757
        DURATION        : 00:23:46.645000000
        NUMBER_OF_FRAMES: 66875
        NUMBER_OF_BYTES : 34374638
        _STATISTICS_WRITING_APP: mkvpropedit v66.0.0 ('Josie') 64-bit
        _STATISTICS_WRITING_DATE_UTC: 2025-05-30 12:14:48
        encoder         : Lavc61.19.100 pcm_s16le
frame=  159 fps=0.0 q=-0.0 size=N/A time=00:00:06.63 bitrate=N/A speed=12.9x    frame=  349 fps=342 q=-0.0 size=N/A time=00:00:14.55 bitrate=N/A speed=14.3x    frame=  579 fps=375 q=-0.0 size=N/A time=00:00:24.14 bitrate=N/A speed=15.7x    frame=  780 fps=381 q=-0.0 size=N/A time=00:00:32.53 bitrate=N/A speed=15.9x    frame= 1011 fps=393 q=-0.0 size=N/A time=00:00:42.16 bitrate=N/A speed=16.4x    frame= 1268 fps=410 q=-0.0 size=N/A time=00:00:52.88 bitrate=N/A speed=17.1x    frame= 1454 fps=404 q=-0.0 size=N/A time=00:01:00.64 bitrate=N/A speed=16.9x    frame= 1697 fps=412 q=-0.0 size=N/A time=00:01:10.77 bitrate=N/A speed=17.2x    frame= 1892 fps=409 q=-0.0 size=N/A time=00:01:18.91 bitrate=N/A speed=  17x    frame= 2056 fps=399 q=-0.0 size=N/A time=00:01:25.75 bitrate=N/A speed=16.6x    frame= 2257 fps=399 q=-0.0 size=N/A time=00:01:34.13 bitrate=N/A speed=16.6x    frame= 2469 fps=399 q=-0.0 size=N/A time=00:01:42.97 bitrate=N/A speed=16.7x    frame= 2666 fps=398 q=-0.0 size=N/A time=00:01:51.19 bitrate=N/A speed=16.6x    frame= 2862 fps=397 q=-0.0 size=N/A time=00:01:59.36 bitrate=N/A speed=16.6x    frame= 3029 fps=392 q=-0.0 size=N/A time=00:02:06.33 bitrate=N/A speed=16.4x    frame= 3216 fps=390 q=-0.0 size=N/A time=00:02:14.13 bitrate=N/A speed=16.3x    frame= 3419 fps=390 q=-0.0 size=N/A time=00:02:22.60 bitrate=N/A speed=16.3x    frame= 3611 fps=390 q=-0.0 size=N/A time=00:02:30.60 bitrate=N/A speed=16.3x    frame= 3830 fps=391 q=-0.0 size=N/A time=00:02:39.74 bitrate=N/A speed=16.3x    frame= 4054 fps=394 q=-0.0 size=N/A time=00:02:49.08 bitrate=N/A speed=16.4x    frame= 4262 fps=394 q=-0.0 size=N/A time=00:02:57.76 bitrate=N/A speed=16.4x    frame= 4458 fps=393 q=-0.0 size=N/A time=00:03:05.93 bitrate=N/A speed=16.4x    frame= 4656 fps=393 q=-0.0 size=N/A time=00:03:14.19 bitrate=N/A speed=16.4x    frame= 4912 fps=397 q=-0.0 size=N/A time=00:03:24.87 bitrate=N/A speed=16.6x    frame= 5185 fps=402 q=-0.0 size=N/A time=00:03:36.25 bitrate=N/A speed=16.8x    frame= 5434 fps=406 q=-0.0 size=N/A time=00:03:46.64 bitrate=N/A speed=16.9x    frame= 5680 fps=408 q=-0.0 size=N/A time=00:03:56.90 bitrate=N/A speed=  17x    frame= 5950 fps=412 q=-0.0 size=N/A time=00:04:08.16 bitrate=N/A speed=17.2x    frame= 6226 fps=416 q=-0.0 size=N/A time=00:04:19.67 bitrate=N/A speed=17.4x    frame= 6478 fps=419 q=-0.0 size=N/A time=00:04:30.18 bitrate=N/A speed=17.5x    frame= 6754 fps=423 q=-0.0 size=N/A time=00:04:41.73 bitrate=N/A speed=17.6x    frame= 7027 fps=426 q=-0.0 size=N/A time=00:04:53.08 bitrate=N/A speed=17.8x    frame= 7274 fps=428 q=-0.0 size=N/A time=00:05:03.38 bitrate=N/A speed=17.8x    frame= 7516 fps=429 q=-0.0 size=N/A time=00:05:13.47 bitrate=N/A speed=17.9x    frame= 7757 fps=430 q=-0.0 size=N/A time=00:05:23.53 bitrate=N/A speed=17.9x    frame= 8025 fps=432 q=-0.0 size=N/A time=00:05:34.70 bitrate=N/A speed=  18x    frame= 8293 fps=435 q=-0.0 size=N/A time=00:05:45.88 bitrate=N/A speed=18.1x    frame= 8543 fps=436 q=-0.0 size=N/A time=00:05:56.31 bitrate=N/A speed=18.2x    frame= 8793 fps=438 q=-0.0 size=N/A time=00:06:06.74 bitrate=N/A speed=18.3x    frame= 8990 fps=436 q=-0.0 size=N/A time=00:06:14.95 bitrate=N/A speed=18.2x    frame= 9172 fps=434 q=-0.0 size=N/A time=00:06:22.54 bitrate=N/A speed=18.1x    frame= 9333 fps=431 q=-0.0 size=N/A time=00:06:29.26 bitrate=N/A speed=  18x    frame= 9568 fps=432 q=-0.0 size=N/A time=00:06:39.06 bitrate=N/A speed=  18x    frame= 9827 fps=433 q=-0.0 size=N/A time=00:06:49.86 bitrate=N/A speed=18.1x    frame=10082 fps=435 q=-0.0 size=N/A time=00:07:00.50 bitrate=N/A speed=18.1x    frame=10341 fps=436 q=-0.0 size=N/A time=00:07:11.30 bitrate=N/A speed=18.2x    frame=10544 fps=435 q=-0.0 size=N/A time=00:07:19.77 bitrate=N/A speed=18.2x    frame=10768 fps=435 q=-0.0 size=N/A time=00:07:29.11 bitrate=N/A speed=18.2x    frame=11037 fps=437 q=-0.0 size=N/A time=00:07:40.33 bitrate=N/A speed=18.2x    frame=11294 fps=438 q=-0.0 size=N/A time=00:07:51.05 bitrate=N/A speed=18.3x    frame=11534 fps=439 q=-0.0 size=N/A time=00:08:01.02 bitrate=N/A speed=18.3x    frame=11804 fps=440 q=-0.0 size=N/A time=00:08:12.32 bitrate=N/A speed=18.4x    frame=12056 fps=441 q=-0.0 size=N/A time=00:08:22.83 bitrate=N/A speed=18.4x    frame=12323 fps=443 q=-0.0 size=N/A time=00:08:33.97 bitrate=N/A speed=18.5x    frame=12572 fps=444 q=-0.0 size=N/A time=00:08:44.35 bitrate=N/A speed=18.5x    frame=12791 fps=443 q=-0.0 size=N/A time=00:08:53.49 bitrate=N/A speed=18.5x    frame=13049 fps=444 q=-0.0 size=N/A time=00:09:04.25 bitrate=N/A speed=18.5x    frame=13303 fps=445 q=-0.0 size=N/A time=00:09:14.84 bitrate=N/A speed=18.6x    frame=13550 fps=445 q=-0.0 size=N/A time=00:09:25.14 bitrate=N/A speed=18.6x    frame=13797 fps=446 q=-0.0 size=N/A time=00:09:35.44 bitrate=N/A speed=18.6x    frame=14071 fps=447 q=-0.0 size=N/A time=00:09:46.87 bitrate=N/A speed=18.7x    frame=14330 fps=448 q=-0.0 size=N/A time=00:09:57.68 bitrate=N/A speed=18.7x    frame=14588 fps=449 q=-0.0 size=N/A time=00:10:08.44 bitrate=N/A speed=18.7x    frame=14836 fps=450 q=-0.0 size=N/A time=00:10:18.78 bitrate=N/A speed=18.8x    frame=15084 fps=450 q=-0.0 size=N/A time=00:10:29.12 bitrate=N/A speed=18.8x    frame=15331 fps=451 q=-0.0 size=N/A time=00:10:39.43 bitrate=N/A speed=18.8x    frame=15559 fps=450 q=-0.0 size=N/A time=00:10:48.93 bitrate=N/A speed=18.8x    frame=15775 fps=450 q=-0.0 size=N/A time=00:10:57.94 bitrate=N/A speed=18.8x    frame=16009 fps=450 q=-0.0 size=N/A time=00:11:07.70 bitrate=N/A speed=18.8x    frame=16253 fps=450 q=-0.0 size=N/A time=00:11:17.88 bitrate=N/A speed=18.8x    frame=16469 fps=450 q=-0.0 size=N/A time=00:11:26.89 bitrate=N/A speed=18.8x    frame=16708 fps=450 q=-0.0 size=N/A time=00:11:36.86 bitrate=N/A speed=18.8x    frame=16964 fps=451 q=-0.0 size=N/A time=00:11:47.54 bitrate=N/A speed=18.8x    frame=17239 fps=452 q=-0.0 size=N/A time=00:11:59.00 bitrate=N/A speed=18.8x    frame=17494 fps=453 q=-0.0 size=N/A time=00:12:09.64 bitrate=N/A speed=18.9x    frame=17736 fps=453 q=-0.0 size=N/A time=00:12:19.73 bitrate=N/A speed=18.9x    frame=17952 fps=452 q=-0.0 size=N/A time=00:12:28.74 bitrate=N/A speed=18.9x    frame=18171 fps=452 q=-0.0 size=N/A time=00:12:37.88 bitrate=N/A speed=18.8x    frame=18382 fps=451 q=-0.0 size=N/A time=00:12:46.68 bitrate=N/A speed=18.8x    frame=18630 fps=452 q=-0.0 size=N/A time=00:12:57.02 bitrate=N/A speed=18.8x    frame=18867 fps=452 q=-0.0 size=N/A time=00:13:06.91 bitrate=N/A speed=18.8x    frame=19095 fps=452 q=-0.0 size=N/A time=00:13:16.42 bitrate=N/A speed=18.8x    frame=19336 fps=452 q=-0.0 size=N/A time=00:13:26.47 bitrate=N/A speed=18.8x    frame=19573 fps=452 q=-0.0 size=N/A time=00:13:36.35 bitrate=N/A speed=18.9x    frame=19834 fps=453 q=-0.0 size=N/A time=00:13:47.24 bitrate=N/A speed=18.9x    frame=20087 fps=453 q=-0.0 size=N/A time=00:13:57.79 bitrate=N/A speed=18.9x    frame=20352 fps=454 q=-0.0 size=N/A time=00:14:08.84 bitrate=N/A speed=18.9x    frame=20613 fps=454 q=-0.0 size=N/A time=00:14:19.73 bitrate=N/A speed=  19x    frame=20768 fps=453 q=-0.0 size=N/A time=00:14:26.19 bitrate=N/A speed=18.9x    frame=20949 fps=451 q=-0.0 size=N/A time=00:14:33.74 bitrate=N/A speed=18.8x    frame=21216 fps=452 q=-0.0 size=N/A time=00:14:44.88 bitrate=N/A speed=18.9x    frame=21448 fps=452 q=-0.0 size=N/A time=00:14:54.56 bitrate=N/A speed=18.9x    frame=21727 fps=453 q=-0.0 size=N/A time=00:15:06.19 bitrate=N/A speed=18.9x    frame=21946 fps=453 q=-0.0 size=N/A time=00:15:15.33 bitrate=N/A speed=18.9x    frame=22189 fps=453 q=-0.0 size=N/A time=00:15:25.46 bitrate=N/A speed=18.9x    frame=22447 fps=453 q=-0.0 size=N/A time=00:15:36.22 bitrate=N/A speed=18.9x    frame=22719 fps=454 q=-0.0 size=N/A time=00:15:47.57 bitrate=N/A speed=18.9x    frame=22975 fps=455 q=-0.0 size=N/A time=00:15:58.24 bitrate=N/A speed=  19x    frame=23218 fps=455 q=-0.0 size=N/A time=00:16:08.38 bitrate=N/A speed=  19x    frame=23474 fps=455 q=-0.0 size=N/A time=00:16:19.06 bitrate=N/A speed=  19x    frame=23739 fps=456 q=-0.0 size=N/A time=00:16:30.11 bitrate=N/A speed=  19x    frame=23972 fps=456 q=-0.0 size=N/A time=00:16:39.83 bitrate=N/A speed=  19x    frame=24218 fps=456 q=-0.0 size=N/A time=00:16:50.09 bitrate=N/A speed=  19x    frame=24463 fps=456 q=-0.0 size=N/A time=00:17:00.31 bitrate=N/A speed=  19x    frame=24699 fps=456 q=-0.0 size=N/A time=00:17:10.15 bitrate=N/A speed=  19x    frame=24943 fps=456 q=-0.0 size=N/A time=00:17:20.33 bitrate=N/A speed=  19x    frame=25210 fps=457 q=-0.0 size=N/A time=00:17:31.46 bitrate=N/A speed=  19x    frame=25450 fps=457 q=-0.0 size=N/A time=00:17:41.47 bitrate=N/A speed=19.1x    frame=25712 fps=457 q=-0.0 size=N/A time=00:17:52.40 bitrate=N/A speed=19.1x    frame=25957 fps=457 q=-0.0 size=N/A time=00:18:02.62 bitrate=N/A speed=19.1x    frame=26210 fps=458 q=-0.0 size=N/A time=00:18:13.17 bitrate=N/A speed=19.1x    frame=26443 fps=458 q=-0.0 size=N/A time=00:18:22.89 bitrate=N/A speed=19.1x    frame=26703 fps=458 q=-0.0 size=N/A time=00:18:33.73 bitrate=N/A speed=19.1x    frame=26972 fps=459 q=-0.0 size=N/A time=00:18:44.95 bitrate=N/A speed=19.1x    frame=27212 fps=459 q=-0.0 size=N/A time=00:18:54.96 bitrate=N/A speed=19.1x    frame=27481 fps=459 q=-0.0 size=N/A time=00:19:06.18 bitrate=N/A speed=19.2x    frame=27745 fps=460 q=-0.0 size=N/A time=00:19:17.19 bitrate=N/A speed=19.2x    frame=27983 fps=460 q=-0.0 size=N/A time=00:19:27.12 bitrate=N/A speed=19.2x    frame=28231 fps=460 q=-0.0 size=N/A time=00:19:37.46 bitrate=N/A speed=19.2x    frame=28447 fps=460 q=-0.0 size=N/A time=00:19:46.47 bitrate=N/A speed=19.2x    frame=28648 fps=459 q=-0.0 size=N/A time=00:19:54.86 bitrate=N/A speed=19.1x    frame=28884 fps=459 q=-0.0 size=N/A time=00:20:04.70 bitrate=N/A speed=19.1x    frame=29114 fps=459 q=-0.0 size=N/A time=00:20:14.29 bitrate=N/A speed=19.1x    frame=29367 fps=459 q=-0.0 size=N/A time=00:20:24.84 bitrate=N/A speed=19.2x    frame=29614 fps=459 q=-0.0 size=N/A time=00:20:35.15 bitrate=N/A speed=19.2x    frame=29853 fps=459 q=-0.0 size=N/A time=00:20:45.11 bitrate=N/A speed=19.2x    frame=30119 fps=460 q=-0.0 size=N/A time=00:20:56.21 bitrate=N/A speed=19.2x    frame=30380 fps=460 q=-0.0 size=N/A time=00:21:07.09 bitrate=N/A speed=19.2x    frame=30641 fps=461 q=-0.0 size=N/A time=00:21:17.98 bitrate=N/A speed=19.2x    frame=30862 fps=460 q=-0.0 size=N/A time=00:21:27.20 bitrate=N/A speed=19.2x    frame=31114 fps=460 q=-0.0 size=N/A time=00:21:37.71 bitrate=N/A speed=19.2x    frame=31353 fps=461 q=-0.0 size=N/A time=00:21:47.68 bitrate=N/A speed=19.2x    frame=31555 fps=460 q=-0.0 size=N/A time=00:21:56.10 bitrate=N/A speed=19.2x    frame=31815 fps=460 q=-0.0 size=N/A time=00:22:06.95 bitrate=N/A speed=19.2x    frame=31971 fps=459 q=-0.0 size=N/A time=00:22:13.45 bitrate=N/A speed=19.1x    frame=32126 fps=458 q=-0.0 size=N/A time=00:22:19.92 bitrate=N/A speed=19.1x    frame=32274 fps=457 q=-0.0 size=N/A time=00:22:26.09 bitrate=N/A speed=19.1x    frame=32413 fps=455 q=-0.0 size=N/A time=00:22:31.89 bitrate=N/A speed=  19x    frame=32564 fps=454 q=-0.0 size=N/A time=00:22:38.19 bitrate=N/A speed=18.9x    frame=32726 fps=453 q=-0.0 size=N/A time=00:22:44.94 bitrate=N/A speed=18.9x    frame=32911 fps=452 q=-0.0 size=N/A time=00:22:52.66 bitrate=N/A speed=18.9x    frame=33088 fps=452 q=-0.0 size=N/A time=00:23:00.04 bitrate=N/A speed=18.8x    frame=33274 fps=451 q=-0.0 size=N/A time=00:23:07.80 bitrate=N/A speed=18.8x    frame=33428 fps=450 q=-0.0 size=N/A time=00:23:14.22 bitrate=N/A speed=18.8x    frame=33610 fps=449 q=-0.0 size=N/A time=00:23:21.81 bitrate=N/A speed=18.7x    frame=33803 fps=449 q=-0.0 size=N/A time=00:23:29.86 bitrate=N/A speed=18.7x    frame=34010 fps=449 q=-0.0 size=N/A time=00:23:38.50 bitrate=N/A speed=18.7x    [Parsed_psnr_10 @ 000001bff4cb1880] PSNR y:46.663824 u:50.075028 v:49.909909 average:47.517318 min:36.143642 max:inf
[out#0/null @ 000001bff4cc0100] video:14697KiB audio:267500KiB subtitle:0KiB other streams:0KiB global headers:0KiB muxing overhead: unknown
frame=34203 fps=448 q=-0.0 Lsize=N/A time=00:23:46.55 bitrate=N/A speed=18.7x    
